<svg xmlns="http://www.w3.org/2000/svg" viewBox="-1.56 277.63 572.79 279.99"><g fill="#FDF6EE"><path d="M549.27,352.7c13.49,37.71,4.21,78.68-25.28,105.82c-10.71,9.85-23.73,16.28-37.92,19.3
	c-7.81,1.71-15.05,2.54-23.1,2.53l-61.75-0.11l0.04-141.78l23.91,0.02l0.02,118.18l40.18-0.22c18.5-0.81,35.44-8.88,47.25-22.81
	c23.63-27.34,22.53-69.67-1.94-96.23c-11.42-10.79-26.09-19.29-42.37-19.34l-89.61-0.29l-0.11,162.48l-23.9,0.1l-56.34-82.32
	l-41.25-60.63c-0.52,19.72-8.76,36.69-23.58,48.59c-6.64,5.86-14.4,9.5-23.25,10.92l0.02,49.71c-14.68,18.53-30.78,27.7-53.74,33.11
	c-37.53,8.84-74.81-3.47-98.59-33.85c-0.83-1.06-1.63-2.12-2.4-3.2c2.17-1.49,4.72-3.05,10.06-5.21C81,431,91,417,93,401
	c1-13-5-25-16-33c-13-8-31-5-36,10c14-7,33-4,36,14c3,21-19,36-38,30c-20-6-29-26-26-46c3-22,24-28,39.38-39.64
	c1.57-2.51,3.26-4.94,5.07-7.3c5.43-7.08,11.94-13.46,19.45-18.96c22.5-16.47,54.78-22.84,82.02-15.37
	c18.34,4.67,34.84,14.08,47.73,28.33l-18.46,18.49c-6.16-8.47-14.23-14.78-23.84-19.22c-23.07-10.56-49.97-8.05-70.86,6.24
	c-6.43,4.4-11.71,9.7-16.04,15.76c-2.94,0.05-6.22,0-12.37-0.69C50,341,36,348,26,359c-10,12-12,27-6,41c8,17,33,25,46,9
	c3-5,7-18-1-17c-3,0-3,10-9,12s-13,2-18-2c-8-7-11-18-6-27c7-15,24-21,39-16c28,9,33,46,15.74,67.85c-4.94,6.25-4.85,7.98-4.08,9.23
	c14.09,15.39,34.61,23.93,56.78,22.04c17.79-1.06,34.84-8.66,46.73-22.07l0.07-36.3l-54.91-0.01l-0.13-22.85l51.23-0.07
	c6.69-0.22,12.75-0.77,19.18-2.13c17.47-3.68,29.6-18.3,30.44-36.25l0.01-43.88l25.78-0.13L281,328.61l40.68,60.25l32.73,48.17
	l0.14-142.51l118.06,0.19c14.62,0.02,28.14,5.6,40.45,12.49c6.68,4.29,11.77,9.3,17.23,14.8
	C539.08,330.86,545.06,340.95,549.27,352.7z"/><path d="M229.04,455.1c2.07-4.48,3.08-8.57,2.84-13.29l0.04-44.26c9.87-6.41,17.3-14.48,24.09-24.7l0.12,107.48
	l-49.9-0.02C216.09,473.63,223.99,465.66,229.04,455.1z"/><g transform="translate(66.278,542.921) scale(0.058000,-0.058000)"><path d="M348.72787046432495 -12Q200.7575002014637 -12 124.98131369054317 74.99397306144238Q49.20512717962265 161.98794612288475 49.20512717962265 343Q49.20512717962265 462.17659866809845 84.74409456551075 540.9063349962234Q120.28306195139885 619.6360713243484 189.55530327558517 658.906930372119Q258.8275445997715 698.1777894198895 359.1476331949234 698.1777894198895Q421.61661648750305 698.1777894198895 472.2215269356966 682.770263671875Q522.8264373838902 667.3627379238605 559.178020849824 636.6093839854002Q595.5296043157578 605.8560300469398 614.9000231176615 559.500451207161Q634.2704419195652 513.144872367382 634.2704419195652 450.75547406077385H542.3058685362339Q542.3058685362339 494.2582828104496 529.2438322901726 526.035059273243Q516.1817960441113 557.8118357360363 491.91313126683235 578.6612314879894Q467.64446648955345 599.5106272399426 433.5517780482769 609.2790658473969Q399.45908960700035 619.0475044548512 357.8572578728199 619.0475044548512Q306.9655402302742 619.0475044548512 267.1377964168787 603.9871807545424Q227.3100526034832 588.9268570542336 199.80381147563457 557.0522603392601Q172.29757034778595 525.1776636242867 158.1103845089674 475.829824835062Q143.92319867014885 426.4819860458374 143.92319867014885 357.5780374109745V326.33739894628525Q143.92319867014885 234.6295502781868 167.9845150411129 177.30532909929752Q192.04583141207695 119.98110792040825 238.37530274689198 93.55569644272327Q284.704774081707 67.1302849650383 350.7353957593441 67.1302849650383Q418.88950580358505 67.1302849650383 461.28610625863075 89.07275034487247Q503.68270671367645 111.01521572470665 523.7433810830116 155.3196871727705Q543.8040554523468 199.62415862083435 543.8040554523468 265.9428973197937V281.7457537651062H335.3801052570343V358.7282475233078H633.7698195874691V0H569.8145235478878L560.0890477001667 81.69624826312065Q537.3590193092823 49.5017591714859 504.6942483484745 28.63783049583435Q472.0294773876667 7.7739018201828 432.677251920104 -2.1130490899086Q393.32502645254135 -12 348.72787046432495 -12Z"/></g><g transform="translate(106.936,542.921) scale(0.058000,-0.058000)"><path d="M76.8541941344738 0V686.1777894198895H165.3013676404953L449.7939213514328 240.92528066039085Q454.4444280564785 234.590276658535 460.92323088645935 223.44388626515865Q467.4020337164402 212.2974958717823 473.8264422416687 200.83301120996475Q480.2508507668972 189.3685265481472 484.27870190143585 180.7600719332695H488.81922924518585Q488.6414398252964 196.7579248547554 488.5658753067255 212.8197665810585Q488.4903107881546 228.8816083073616 488.4903107881546 242.28544199466705V686.1777894198895H577.294136673212V0H493.69213008880615L205.27944031357765 452.42659413814545Q199.05458679795265 462.5681286752224 188.09272065758705 481.7551050186157Q177.13085451722145 500.94208136200905 169.69183948636055 515.0913516581059H165.3291015625Q165.50689098238945 499.88571110367775 165.58245550096035 483.0602280199528Q165.65802001953125 466.2347449362278 165.65802001953125 451.06643280386925V0Z"/></g><g transform="translate(144.868,542.921) scale(0.058000,-0.058000)"><path d="M76.8541941344738 0V686.1777894198895H305.66226252913475Q403.78158140182495 686.1777894198895 470.8542287796736 650.3634188622236Q537.9268761575222 614.5490483045578 572.6791799515486 539.1246128231287Q607.431483745575 463.7001773416996 607.431483745575 343.5067078769207Q607.431483745575 224.7727110683918 572.6658497601748 148.68381635844707Q537.9002157747746 72.59492164850235 470.6631091684103 36.297460824251175Q403.42600256204605 0 304.9777652323246 0ZM168.5384461581707 79.49302288889885H299.646240234375Q349.21999579668045 79.49302288889885 388.482450529933 92.3048604875803Q427.7449052631855 105.11669808626175 455.5891225785017 133.78813329339027Q483.4333398938179 162.4595685005188 498.0733760744333 209.8793922662735Q512.7134122550488 257.2992160320282 512.7134122550488 326.0557157099247V355.66350346803665Q512.7134122550488 425.7077719271183 498.1489405930042 473.6995806694031Q483.5844689309597 521.6913894116879 456.0588826537132 550.9584272056818Q428.53329637646675 580.2254649996758 389.1063824146986 593.4551157653332Q349.67946845293045 606.6847665309906 299.646240234375 606.6847665309906H168.5384461581707Z"/></g><g transform="translate(193.415,542.921) scale(0.058000,-0.058000)"><path d="M335.73281916975975 -12Q240.3159419298172 -12 175.77290016412735 26.493973061442375Q111.2298583984375 64.98794612288475 78.76654109358788 143.73101264238358Q46.30322378873825 222.4740791618824 46.30322378873825 343.17778941988945Q46.30322378873825 523.4450372755527 122.87504605948925 610.8114133477211Q199.44686833024025 698.1777894198895 341.0343459546566 698.1777894198895Q421.18156987428665 698.1777894198895 480.8613369464874 669.8150514960289Q540.5411040186882 641.4523135721684 573.6635465323925 583.7454163730145Q606.7859890460968 526.0385191738605 606.7859890460968 437.0913565158844H514.8758099675179Q514.8758099675179 497.5108462870121 494.3537912517786 537.8620551228523Q473.83177253603935 578.2132639586926 434.5294127911329 598.6303842067719Q395.2270530462265 619.0475044548512 339.29409247636795 619.0475044548512Q276.77745497226715 619.0475044548512 232.094910800457 591.4993788003922Q187.41236662864685 563.9512531459332 164.21683095395565 506.091994792223Q141.02129527926445 448.2327364385128 141.02129527926445 356.39905723929405V324.79568085074425Q141.02129527926445 234.7721583545208 163.90124268829823 177.84517550468445Q186.781190097332 120.9181926548481 230.80231781303883 94.0242388099432Q274.82344552874565 67.1302849650383 338.0111645758152 67.1302849650383Q394.24394780397415 67.1302849650383 434.402423158288 86.88598875701427Q474.56089851260185 106.64169254899025 495.9571602791548 146.73954744637012Q517.3534220457077 186.83740234375 517.3534220457077 248.3681161403656H606.4570705890656Q606.4570705890656 158.6797975897789 572.0014491379261 101.06179510056973Q537.5458276867867 43.44379261136055 476.7118032425642 15.721896305680275Q415.87777879834175 -12 335.73281916975975 -12Z"/></g><g transform="translate(230.999,542.921) scale(0.058000,-0.058000)"><path d="M349.7439167201519 -12Q254.30663576722145 -12 186.24722103774548 26.93585504591465Q118.1878063082695 65.8717100918293 82.24551504850388 144.78281538188457Q46.30322378873825 223.69392067193985 46.30322378873825 343Q46.30322378873825 462.9771608710289 82.24551504850388 541.5527253895998Q118.1878063082695 620.1282899081707 186.24722103774548 659.1530396640301Q254.30663576722145 698.1777894198895 349.7439167201519 698.1777894198895Q446.18119767308235 698.1777894198895 513.9081144034863 659.1530396640301Q581.6350311338902 620.1282899081707 617.488427683711 541.5527253895998Q653.341824233532 462.9771608710289 653.341824233532 343Q653.341824233532 223.69392067193985 617.488427683711 144.78281538188457Q581.6350311338902 65.8717100918293 513.9081144034863 26.93585504591465Q446.18119767308235 -12 349.7439167201519 -12ZM349.7439167201519 67.1302849650383Q398.8001791536808 67.1302849650383 437.5052087903023 82.62533156573772Q476.21023842692375 98.12037816643715 503.3053742647171 130.15943410992622Q530.4005101025105 162.1984900534153 544.6935003846884 211.12493613362312Q558.9864906668663 260.05138221383095 558.9864906668663 327.243099629879V358.5381323993206Q558.9864906668663 426.0925877392292 544.6935003846884 475.2004027813673Q530.4005101025105 524.3082178235054 503.3053742647171 556.2583790570498Q476.21023842692375 588.2085402905941 437.5052087903023 603.6280223727226Q398.8001791536808 619.0475044548512 349.7439167201519 619.0475044548512Q300.86544370651245 619.0475044548512 262.15012665092945 603.6280223727226Q223.43480959534645 588.2085402905941 196.3396737575531 556.2583790570498Q169.24453791975975 524.3082178235054 155.1329165995121 475.2004027813673Q141.02129527926445 426.0925877392292 141.02129527926445 358.5381323993206V327.243099629879Q141.02129527926445 260.05138221383095 155.1329165995121 211.12493613362312Q169.24453791975975 162.1984900534153 196.3396737575531 130.15943410992622Q223.43480959534645 98.12037816643715 262.15012665092945 82.62533156573772Q300.86544370651245 67.1302849650383 349.7439167201519 67.1302849650383Z"/></g><g transform="translate(271.599,542.921) scale(0.058000,-0.058000)"><path d="M76.8541941344738 0V686.1777894198895H165.3013676404953L449.7939213514328 240.92528066039085Q454.4444280564785 234.590276658535 460.92323088645935 223.44388626515865Q467.4020337164402 212.2974958717823 473.8264422416687 200.83301120996475Q480.2508507668972 189.3685265481472 484.27870190143585 180.7600719332695H488.81922924518585Q488.6414398252964 196.7579248547554 488.5658753067255 212.8197665810585Q488.4903107881546 228.8816083073616 488.4903107881546 242.28544199466705V686.1777894198895H577.294136673212V0H493.69213008880615L205.27944031357765 452.42659413814545Q199.05458679795265 462.5681286752224 188.09272065758705 481.7551050186157Q177.13085451722145 500.94208136200905 169.69183948636055 515.0913516581059H165.3291015625Q165.50689098238945 499.88571110367775 165.58245550096035 483.0602280199528Q165.65802001953125 466.2347449362278 165.65802001953125 451.06643280386925V0Z"/></g><g transform="translate(309.531,542.921) scale(0.058000,-0.058000)"><path d="M297.059878885746 -12Q245.91260105371475 -12 200.02287903428078 -1.7304172664880753Q154.1331570148468 8.53916546702385 119.3425315618515 32.579011872410774Q84.5519061088562 56.6188582777977 64.57136377692223 95.91273956000805Q44.59082144498825 135.2066208422184 44.59082144498825 193.56356155872345Q44.59082144498825 198.926299482584 44.772190406918526 203.67539294064045Q44.9535593688488 208.4244863986969 45.261902987957 212.98677933216095H137.05720791220665Q136.74886429309845 209.0749931037426 136.41332352161407 203.12276509404182Q136.0777827501297 197.17053708434105 136.0777827501297 192.2249313890934Q136.0777827501297 149.87319776415825 155.30484664440155 122.01125030219555Q174.5319105386734 94.14930284023285 210.35362741351128 80.63979390263557Q246.17534428834915 67.1302849650383 294.5312882065773 67.1302849650383Q317.13296338915825 67.1302849650383 339.9530066549778 70.65139657258987Q362.77304992079735 74.17250818014145 383.3169197887182 82.36591903865337Q403.8607896566391 90.5593298971653 419.7439240068197 103.68256886303425Q435.62705835700035 116.8058078289032 444.6910518556833 136.00701977312565Q453.7550453543663 155.2082317173481 453.7550453543663 181.5527523458004Q453.7550453543663 214.97577503323555 437.13548646867275 237.35958562791348Q420.5159275829792 259.7433962225914 392.4170290976763 274.6701815575361Q364.31813061237335 289.59696689248085 329.1509978175163 301.1803714334965Q293.9838650226593 312.7637759745121 256.5083886086941 323.9282352030277Q219.03291219472885 335.09269443154335 183.86577939987183 349.6604189276695Q148.6986466050148 364.2281434237957 120.59974811971188 385.2958679199219Q92.50084963440895 406.36359241604805 75.8812907487154 437.954848960042Q59.26173186302185 469.54610550403595 59.26173186302185 514.791533857584Q59.26173186302185 559.1980519592762 75.57062423229218 593.6135152727365Q91.8795166015625 628.0289785861969 123.06376919150352 651.2267205119133Q154.24802178144455 674.4244624376297 198.67886652052402 686.3011259287596Q243.1097112596035 698.1777894198895 299.20248696208 698.1777894198895Q348.5214686691761 698.1777894198895 390.47649474442005 687.2497743964195Q432.431520819664 676.3217593729496 463.77716290950775 653.2607427537441Q495.1228049993515 630.1997261345387 512.5725120306015 594.1150919049978Q530.0222190618515 558.030457675457 530.0222190618515 507.2577466070652V493.65764182806015H439.61631244421005V509.62744852900505Q439.61631244421005 544.1616952419281 422.6661931425333 568.3828010857105Q405.71607384085655 592.603906929493 374.8943300098181 605.825705692172Q344.0725861787796 619.0475044548512 301.80712032318115 619.0475044548512Q253.3434519469738 619.0475044548512 220.0071871727705 607.9459994286299Q186.6709223985672 596.8444944024086 169.4729123711586 575.4075191915035Q152.27490234375 553.9705439805984 152.27490234375 522.809961616993Q152.27490234375 491.42791748046875 168.89446122944355 470.383227199316Q185.5140201151371 449.3385369181633 213.76709040999413 435.1583976447582Q242.02016070485115 420.97825837135315 277.1872934997082 409.8059591203928Q312.3544262945652 398.63365986943245 349.6757308989763 387.3767263889313Q386.99703550338745 376.1197929084301 422.1641682982445 361.5037010461092Q457.3313010931015 346.8876091837883 485.5843713879585 325.25460758805275Q513.8374416828156 303.6216059923172 530.4570005685091 271.512222006917Q547.0765594542027 239.4028380215168 547.0765594542027 193.6012022793293Q547.0765594542027 120.51417925953865 515.0931185185909 75.13262097537518Q483.1096775829792 29.7510626912117 426.7520941346884 8.87553134560585Q370.39451068639755 -12 297.059878885746 -12Z"/></g><g transform="translate(343.750,542.921) scale(0.058000,-0.058000)"><path d="M322.19747495651245 -12Q245.12412267923355 -12 189.41766826808453 13.360812321305275Q133.7112138569355 38.72162464261055 103.73493200540543 95.4246586561203Q73.75865015387535 152.12769266963005 73.75865015387535 244.0455105304718V686.1777894198895H165.75124579668045V233.71029606461525Q165.75124579668045 149.76069912314415 206.11149382591248 108.59966385364532Q246.4717418551445 67.4386285841465 322.49973303079605 67.4386285841465Q399.93280255794525 67.4386285841465 441.51554226875305 108.59966385364532Q483.09828197956085 149.76069912314415 483.09828197956085 233.71029606461525V686.1777894198895H574.4741903841496V244.0455105304718Q574.4741903841496 152.12769266963005 544.0112387239933 95.4246586561203Q513.548287063837 38.72162464261055 457.1392934769392 13.360812321305275Q400.73029989004135 -12 322.19747495651245 -12Z"/></g><g transform="translate(381.334,542.921) scale(0.058000,-0.058000)"><path d="M76.8541941344738 0V686.1777894198895H168.5384461581707V80.3962881565094H466.5066696703434V0Z"/></g><g transform="translate(409.174,542.921) scale(0.058000,-0.058000)"><path d="M225.75026324391365 0V606.1442391872406H16.8933824300766V686.1777894198895H527.4013754427433V606.1442391872406H317.43451526761055V0Z"/></g><g transform="translate(440.784,542.921) scale(0.058000,-0.058000)"><path d="M76.8541941344738 0V686.1777894198895H168.5384461581707V0Z"/></g><g transform="translate(454.994,542.921) scale(0.058000,-0.058000)"><path d="M76.8541941344738 0V686.1777894198895H165.3013676404953L449.7939213514328 240.92528066039085Q454.4444280564785 234.590276658535 460.92323088645935 223.44388626515865Q467.4020337164402 212.2974958717823 473.8264422416687 200.83301120996475Q480.2508507668972 189.3685265481472 484.27870190143585 180.7600719332695H488.81922924518585Q488.6414398252964 196.7579248547554 488.5658753067255 212.8197665810585Q488.4903107881546 228.8816083073616 488.4903107881546 242.28544199466705V686.1777894198895H577.294136673212V0H493.69213008880615L205.27944031357765 452.42659413814545Q199.05458679795265 462.5681286752224 188.09272065758705 481.7551050186157Q177.13085451722145 500.94208136200905 169.69183948636055 515.0913516581059H165.3291015625Q165.50689098238945 499.88571110367775 165.58245550096035 483.0602280199528Q165.65802001953125 466.2347449362278 165.65802001953125 451.06643280386925V0Z"/></g><g transform="translate(492.926,542.921) scale(0.058000,-0.058000)"><path d="M348.72787046432495 -12Q200.7575002014637 -12 124.98131369054317 74.99397306144238Q49.20512717962265 161.98794612288475 49.20512717962265 343Q49.20512717962265 462.17659866809845 84.74409456551075 540.9063349962234Q120.28306195139885 619.6360713243484 189.55530327558517 658.906930372119Q258.8275445997715 698.1777894198895 359.1476331949234 698.1777894198895Q421.61661648750305 698.1777894198895 472.2215269356966 682.770263671875Q522.8264373838902 667.3627379238605 559.178020849824 636.6093839854002Q595.5296043157578 605.8560300469398 614.9000231176615 559.500451207161Q634.2704419195652 513.144872367382 634.2704419195652 450.75547406077385H542.3058685362339Q542.3058685362339 494.2582828104496 529.2438322901726 526.035059273243Q516.1817960441113 557.8118357360363 491.91313126683235 578.6612314879894Q467.64446648955345 599.5106272399426 433.5517780482769 609.2790658473969Q399.45908960700035 619.0475044548512 357.8572578728199 619.0475044548512Q306.9655402302742 619.0475044548512 267.1377964168787 603.9871807545424Q227.3100526034832 588.9268570542336 199.80381147563457 557.0522603392601Q172.29757034778595 525.1776636242867 158.1103845089674 475.829824835062Q143.92319867014885 426.4819860458374 143.92319867014885 357.5780374109745V326.33739894628525Q143.92319867014885 234.6295502781868 167.9845150411129 177.30532909929752Q192.04583141207695 119.98110792040825 238.37530274689198 93.55569644272327Q284.704774081707 67.1302849650383 350.7353957593441 67.1302849650383Q418.88950580358505 67.1302849650383 461.28610625863075 89.07275034487247Q503.68270671367645 111.01521572470665 523.7433810830116 155.3196871727705Q543.8040554523468 199.62415862083435 543.8040554523468 265.9428973197937V281.7457537651062H335.3801052570343V358.7282475233078H633.7698195874691V0H569.8145235478878L560.0890477001667 81.69624826312065Q537.3590193092823 49.5017591714859 504.6942483484745 28.63783049583435Q472.0294773876667 7.7739018201828 432.677251920104 -2.1130490899086Q393.32502645254135 -12 348.72787046432495 -12Z"/></g></g><circle cx="545.63" cy="469.52" r="11.6" fill="#F39253"/></svg>